<mxfile host="app.diagrams.net" modified="2023-06-26T11:10:54.987Z" agent="Mozilla/5.0 (Macintosh; Intel Mac OS X 10_15_7) AppleWebKit/537.36 (KHTML, like Gecko) Chrome/114.0.0.0 Safari/537.36" etag="oCcnRp2wGk60UYg-SYXu" version="21.5.0" type="device">
  <diagram name="Page-1" id="IsKqRnotDo3pzhdtgXm-">
    <mxGraphModel dx="1122" dy="729" grid="1" gridSize="10" guides="1" tooltips="1" connect="1" arrows="1" fold="1" page="1" pageScale="1" pageWidth="1169" pageHeight="827" math="0" shadow="0">
      <root>
        <mxCell id="0" />
        <mxCell id="1" parent="0" />
        <mxCell id="LtA9Es2iq_Jr2EM257ws-7" style="edgeStyle=orthogonalEdgeStyle;rounded=0;orthogonalLoop=1;jettySize=auto;html=1;" edge="1" parent="1" source="LtA9Es2iq_Jr2EM257ws-2" target="LtA9Es2iq_Jr2EM257ws-8">
          <mxGeometry relative="1" as="geometry" />
        </mxCell>
        <mxCell id="LtA9Es2iq_Jr2EM257ws-2" value="" style="dashed=0;outlineConnect=0;html=1;align=center;labelPosition=center;verticalLabelPosition=bottom;verticalAlign=top;shape=mxgraph.weblogos.github" vertex="1" parent="1">
          <mxGeometry x="230" y="97.5" width="75" height="75" as="geometry" />
        </mxCell>
        <mxCell id="LtA9Es2iq_Jr2EM257ws-5" style="edgeStyle=orthogonalEdgeStyle;rounded=0;orthogonalLoop=1;jettySize=auto;html=1;" edge="1" parent="1" source="LtA9Es2iq_Jr2EM257ws-4" target="LtA9Es2iq_Jr2EM257ws-2">
          <mxGeometry relative="1" as="geometry">
            <Array as="points">
              <mxPoint x="200" y="135" />
              <mxPoint x="200" y="135" />
            </Array>
          </mxGeometry>
        </mxCell>
        <mxCell id="LtA9Es2iq_Jr2EM257ws-4" value="" style="image;aspect=fixed;html=1;points=[];align=center;fontSize=12;image=img/lib/azure2/identity/Users.svg;" vertex="1" parent="1">
          <mxGeometry x="60" y="100" width="64" height="70" as="geometry" />
        </mxCell>
        <mxCell id="LtA9Es2iq_Jr2EM257ws-6" value="" style="rounded=1;arcSize=12;dashed=1;strokeColor=#ff0000;fillColor=none;gradientColor=none;dashPattern=8 4;strokeWidth=2;" vertex="1" parent="1">
          <mxGeometry x="460" y="160" width="300" height="620" as="geometry" />
        </mxCell>
        <mxCell id="LtA9Es2iq_Jr2EM257ws-30" style="edgeStyle=orthogonalEdgeStyle;rounded=0;orthogonalLoop=1;jettySize=auto;html=1;entryX=0.5;entryY=0;entryDx=0;entryDy=0;" edge="1" parent="1" source="LtA9Es2iq_Jr2EM257ws-8" target="LtA9Es2iq_Jr2EM257ws-19">
          <mxGeometry relative="1" as="geometry" />
        </mxCell>
        <mxCell id="LtA9Es2iq_Jr2EM257ws-8" value="" style="shape=image;verticalLabelPosition=bottom;labelBackgroundColor=default;verticalAlign=top;aspect=fixed;imageAspect=0;image=data:image/png,iVBORw0KGgoAAAANSUhEUgAAAL8AAAEICAMAAAA5jNVNAAABKVBMVEX////w1rfTODMjHyAzUGEAAAD35M1Jcovc2dhta22BsMTvPToAHR40UmT53r4iHyDYOTQiGxri394fHyDRODMeGhvl4uEWHh8AAAwaFRb1PjsVDxEbGBv/7dUAAA0VHh9FbIMMAAURDxUNHh8gFhPz3cLy8vLCNTEkIyYMChJCP0AuQk8qNj+fnp4ZFhq0My+OLSqqMS7Wv6TPz8+aLywmKS62tbVlY2PmzbCejXqsmYTJs5ozMDG4pI2FhIQsICE4ISIWAAB2aVy6ublzKSdQJCR8e3tJR0dXVVVcUkngz7p+cGKmpaVLQjyNfm1GIyNiJiaCKymtoJDLu6lpYFg7NTGekoSUk5NMJCNyk6NjfIk8P0R8o7VdJiW8rp1UTUhBUlpRX2hRaXVUu24xAAAgAElEQVR4nM1daUMaSRNWxzaw4nA5yGRQwyECIiYSDhU1EYMYjyQbDXsl2ez//xFvV3X3TM/JjGLy1pfNyvVUd91V3TM395RUzbS7uyejXm9MqdcbnUy6w1j1SX9yVpQbTsYGIaRoGLquIem6YRThT+OTYe5X4wui6nCkEWLoig/plDEj3v0/3YjumKLT/LCbRHm4uP6/Y6EdJ8R73ZMe+0BIvP2rEUuUOTFc4AulPBV5Uq8T/E+p5dyFxvBXw+Y0vCCGA3yJkO+33z6/X0J6//7z77d3BZIvydKlkcb/wx7sGsQh81qdXH1eWl9fkmid0vtvtzck30pKHMR/tR7skqJTuPOFL0s27DIXS9/O6sQSJYP8UiEaaoSvpImoXvJFz3mgLJC6+QFy8svQxy6Y5GhF0igKuZ+CnrPw+725CeTi16CvxtHkaAYZ77ZzbdiIArkKgZ4J0udLwYGh/AolmKDN0clg0s5lMrlrugHk5r0/+i2JGAvv70iBq3HsZ6O/RrXVybiby8RiueseUVr5373QU7jzXkS5WP98QzgDP9eQtgcE0feGgD6TO6GSRO5couODXOJh/Xe+BT/TDFV7oLYaGQ9zMYq+vTsoKq36Nwf6adgZqf370k9m4BoFn3p/hn4ypsaTfLcvfjjwjC7zP5OB6gUTnQlKTvukN6ZGiHyxoY8AHrbgjDPwM3SgjTaTjNuAPrbbi1/oSqH+ef3B6IGBq42fxcCEoLXYRdEZxntxuvql+631h0mOtQN1xsBT52YjgG8MYPFjsZNePN7Tlfr3B8q9zMAlKrFmPK0jiwP84jiGkh8HGij1u/VHiI5J92hG9cZTwj8B+CSOstPtAfyxLsN/4OIj9UsYVRvxp4PfRfgjhL+L8ONa6XI28OfVI+aJyfVTwc9J8CcMfsO4f7Tomwx84Qw8VSjU0GF7Zfg9vb41A9EHot+zfsd0uPY08EF69IuMBD9eI5bdfyx6oAEmE8WnyWd0+uVGG+Bfc/iD+tX6TIRHfMl78nReYEhAtzI01myziuZ4oLUCZH9q6OlcfcjvvyED+vgJ8NMwQbugeUo3buhY0NQUK9x3Yt2KtCdLmE9e3d1d/f5deyIVrtKVKXa7I82qUmkDH+FfEusZTilAdb+QfKnVKvGkXp+9E0DbbxR5lUo3DPovzRP+FgP/+cvt7bctNdTyr98RewGGzDqMmFg/QNN1fTyajAyFfPOBv770pUXqpVKeHIRgYInmYHb4SnEyU/QZzSxRGeSCputUD2JEMZj5sYk5wv+9XhcLeTudgaX1e61Vz+c3SgVzjZRZwm+b5UHDOGnnMPbM5C407X7dufwoPLI0kH4I+SHk7vBo//jgkpTEx2aYCWQEHJ2cxNB/ZaA3dEGTRk/4PJ/VWpQK+aOp+Lfm7/dV2CZV7d/ykpAxQx+m89VnORfloHvS69G8i+J/75AedKKAQKuT+7urq7t7MhW+jdQ+S4Y1bWbwR9zm0IQXcy4KHr3vmOL/7F7+e4C/MTjsq0jR4AMHt2SmLiAnCkzdHCQtIx47CPyO5V+HRFDLHzwAuMnAISZJswqj2fJrxhBkZ2KiF/htP7209Jn+dkHZfzh6YOA2P7sYospDKgqfZowSfMT/3mE712kEWVCmm5wpDNxQQ0pmg7/LpBECt6GMnuF3ui4afyXrj4U/Pw+p2IwUAIpTdDNzLviAv+7Av37XUsjxo4QHCTZgRgrAln8Yi7Ud8Kn91Bp2qFvrJaV193j4VIXrijGaBXxsStC4OZYZOeDHG1rrzIGV5h/5x0sPpT5RtJlUUqApoRiTjJlzWTRQ6s7orE9cf3oYqffabBQYrScYHxf8uKK4YgNViehuffFftWaTRaL6Gl7LH9c9wPZnoLyInyrATEI47M81chkX+niPhp9hwR6Hxn2wz/5xlJ+NAcJSfy/nMj5gPltXIfGrV2EZUA+4+donMwlB0fsao5yH+DS0+mFo/Ddh3/m7yBcIXbZZ4T/JnbjlZ6Dk90Nh2oLsPNxbIX5iCZtan4kBZebzJOeGH68p+XDJ+RKgcosajZMdTG1hBWuDvUoNqPFo+FgvB/PvFp+4poURCl6gIHnXKxS/IzfGugV3KhBBPNoBxFnsaUw8rH9cd3lff/jrd3mXX1MPNuwLwN55VWrhq5eFRxdRxrzoQHN2N/6eXgrhakWB6BtpuV47rNtjjSUuargB6lnrsfgvxESVN36tPt0omsX1da3uKqTs50vy3/h715VCQWUOuLj7GPgNcyDMGHma/zCVBRP/lzpxJWV5W7DH37t1UIcNUG9LNG55BAMMfjKL/stD/in+EDbRrE8vlbRW384AFfGSbJZ4KaxPkiXQDijCPJwBJjzJtT8oA9o491D81g4cbGgl+w5gjOP+Dir5lC31oM7yvofBHyP8bGL1dRnjH4q3MajVBo2xpb8h5Ac52ML5GXWguTjOKwXLBLFqS//odkBh7wNzyED3IfB7RQ7/+V6C/qMWu9A1Niem6Q2+F3oI/ZXpyIYWEV+VFNOuqod39618nuRBbupnAv+DolDmtgD+81XArxSl8UhNv0D8SilEaXa+L0pYKqYk9g3oQ5rO/6Qq1mRoS+mrxxuiEho5j79G+EkKf3l5O6G4SBsA/kHrcip+9ZIol7eHR/3+/vFNy5XwqGclpcCDcDD4jJL5G2qWAD82tLViRDfQ5vC3KfznnzYFaBwCzhdMBi60+vT1J0mlUKrn6Qexs+IsRvfzVFZuRcSM393KtzCspeKWfLMGf9EHkeDzemFiD+CL5S+Qmy+f379//+0SX9UaqMDTDZC9L1Fy7hiNIShTRyzi3L+kfGpnx0zgKP7yq6/IgBGpFMd6sInXFP7y8lqWyeD393wWeP0zLqROlbg2PVenMZqkOfUb9xuoUiii4EWtT9+smyL+1Bv8fRKhG9NDy1k+B/jPwXpSUZKHq9axRwsb0AijAIcDUi8VCoVWqe4RQ2OeZaqAjRj+1Ww2mhFiurv2Dlf/+Qf2adtgHmtW6eDB6tPgg9nZP7i6u7y8uzrse3GrHlAVKHlEskcbSnkvldpOoBKHDeVYqyWrLCOlUPrZ6q8vff7MZlPXb2D2sBfWAzPH5NsJUC/BLrklkdqfxN7CQuoVYtBDThij8CcTC2z590B8Ct8R9RWYnxvcCWiSa2MwQGET4EBK0t90F00B//YCZeC8HF4FRuh3E68Q/vLzl2A8oUe0tP49z8zQmUrT2QIoQENTSmELEIEEKuDKpcH/JlYXgAEuxCHcGLP8m+cM/vLzj9R8tWC8CtvjzIZQnd2C2BbiicJ0BQ5B2G+h0an9jwf1ZHkBabWcRJ8zHT/GONnTZUHAeR561Osbd0cHjIE8dTfCt3sajgcwcLsB3+X4WymZTSF+rgLTW9onTHpW+fKnUqcUP7ZIP5+pkFDUSV5DH8qcWImEi0CnMwDDhy1bcEfzr+wbhn8h9RGDAJIJhh9DVOVPHP7yaiqb5DMa72lCpGj5w/l9ivpWVQeERoqDW0+L+CAaFBzeWb1rZd9x/AsLShZ9TjD+BpMeE/4C4OfWB2JFqDeoR9ShqvP7R0f7849oMbqo39KYbpn4b7S1c4GfS1BwMsMaXab0wMeo/BTuOP6jPAaPdF1CTAREp32wbyUrwFALyuYnc/1THzEQCiwIFW22J8Utl4brvwX+kCXb+yRk3hWN2PRky1JiopRfm/gXVtfABgW1lFB5k5vLFvyF1FeKX1lnIw7H+QILEy9noLUes2Us4SUip9vH8MfEn2KRmH9Lg7V5hedaZp7j05pijmgckYGI08PVYoPIOTOEDEC6siHwC/drMvCBVUL88GOfKPvGEn7BNIw4wI/1iUiUDh4t/+6hp3lWsbKySbobiZSMfy8RFIiypAVTLiE9lOAzJYje4BvNauXjzY43fupgzI4OzSZN8y+rsF8cF4flX/sqSw98ZpM6gPt1nNFQ72bjbOdFTciF/7JglQTU+0L2ow3/wnbABuRsttPi+WsW4zfUtmNllvjdCiwXI+bn80nJfDIw57gBnrkkSv/aR7v0cAUoXa1vsfWZUWvx4LOX9kL9QRuIn3CYH2ZDMZXxikOrtuVftT4Ce5Yk/Odm5LbU0q1bdvq3pRL9JZGHYfS8bYcvNsDDBE3k5bd95F0WN2A2yBntk+/OKkT/Cub2Si0ziaGbkVxzLL+pAW4fIMedqVUZ/6syZjCPnOy30fGGve2t7p8B+gK5siybWtOk6M1ugtxtVYx8sn+4l59+JEllTrt/5Gy/A7+Udqrq0SVpUStHbuTiNE3J1j658IsNcOLHwBPrVbLyMvwvYQPqM8kTOUEdd5+n9Ee3ClT0tPzAyn9VJv4u9RXi7CpJY80hq3gtP/0Iht72MWB1/ugxIVA9mczf3R4cXF1u5OHMTovcS+j7Vxjk8uTXAQbF2ZkHnID2ll96Lb8VeksMqIclMni4SkPVXCmUKEG9s7WRvzuS0RMQrrri8L721bQnYkx7U07bKT7CapD5u3nTtdP9yoccjfeifqlVKGhQktsgpbNjSWvnb/N1iFKoiFnJiw0MlpPtGoxFh+xX7+WntIo9MLpQtyi1RzAdXLp7BP75/cvLm5vvl1cHx/tSDqeqB616EjwwRHJe4r8gNNjWmMfQh2uv10dECU8pEeX7d6Zvpa1I53XU22Nb1OdRkVPnD5Q6L6arJcVT/BdMDZaDIIIVt2W/5YfQtcyq0EqyUMBSTP29VwAfQH0QlL5fDRF29aoOdW1WkKHik/3ggwXzGFmAUHzWzn2XH3dAWVMkIu/XPSMwFy3xliiUqFobpHZ3cHzUN1ef70D/6PCswKpjGlbSIRJyBm8mrToFaCSJj/eeUQYWPiayJnx+amc6filOVg+wxoatmNL9zeXlGdIltcMkXzfvgWA+LK9g6dYbyleHABnTxId97NWbRJbfWkKWliLgFzJynDevDNHA+CDlb9W+2aIp5NGQQuqVVPywcAEya3FYtOKhm9/y4+dSrz4mymsS/ukKsMXepGLgqvYvieP+HGrUriz8JT71rQ40H+uJhAKk3Qv8u2D9y5i2Byw/42BhDxJ6VpAOj/+Y8IIFhDr1gh3/HcefbJEz/qkjFB9fMCyRN/sZOB/JnFcwfPwsmt+816kjT2KFI1IQAbPaP7ghG6WCeX0OFLAJ1Ys6uRPhm/q9ECA+woWZVxWg83ozVXw44eaVbtc9FMAru8H3UNuTNwNOVe0f314qJJ/fqFPKU87Ixv2Z1FuCOpZX7Gnix0KEqGSh9dz8FEJ82IehIq3deOBXrzwY2BLG0zY7A2Zz/+j48IDSMft/yQvTLN6detkwbCatM7Yo/sx6hoDPMwgvBVYPvKbhGIvq7cbGketV754YLL9H6iJjeCcpQM8S/xDiw62XpwLsBxy1U29aoQ7i8ZMXAdq74FAArLqdhhUfHj+1+Klf+y97zfII6pPkxv3x9II79RLTlp8nAcwDVK3gIRR8br1KXgpwW6/54zok1D0pLIINYgBuoQqU/gVuRFgdCNW3jKMCYcRHCBDWRJ0bQGM0/6MXeL+GVsrXYRplX1b1ft/6P0xtNv19F8dwiqVcS323Q4sPJSjEewvQbYn494PVG9b+K5TqGziOAgnYBl5vZ+GHTmoyO3UNmRGpmsHblNjH/uFPqMGeIVBLCyqt34gjqXaSFBsiB1vXwgcCa0tDCAeVh2Q5vPgs8BTU0wKpx0TT/PHTvNMV/9Dc3SptqFd1MCZTV5IpMJ4OQO/7Lrz6LvCEnnf1lpwIS62AmWiIf2jwwAZqNJxI0c4kv4AdpM2X0yUBjSDkMJb5CS3+XPx4DOcQIPW+UA8aiobg4e5eqec3Cvc3Z7e29Hd+HmcvphkfJDRAPR48o/mJgB/rwCUvDabGpK7lg6f6HMmX9MIV6odP3mtfwdMkmydg5hOih9Div8DqwEnvJAa6iAFGKIgvfntLUOhmAmARxNxcl5nPqPhhrEYEoU4Yx+RhBwj74uB4wrtwYgMgDOiuwaOfKOLDHaBPFgmJ7kMYuBeJTTI4+kH8LI3KscphIor3wo9vy1mAEwgc3o0uQjdi+YGBaTvAHUBsLq7D259HsJ7waSZ+PiYIrOhGqFsTpE/wG+zSac7AFBfGg5g2Rs/JZDTxT22zqVI22OTZiL6rK/kIp1DVY3bvQ7q5WOE6EKzEvKsynBtrPHkM731Tn8xKkGcUxxjIK6X7kGfIoS6BX5fuPHu2whkofwzMAHAur9jF8CH74Xn44Cf1ShHzxHBHhl8hCO7T00JlLKp6wOtCleazZxYDmx9WA0ChAtIAYsDDh5D4U3sfpDIcjG36SBC7AyF/M3UL1OMBj+oqi8+QXnAG1pRtf1QM/+5cTWGV81D4U6tWEZFrGvGxQZiwaNCSC5rQUtXj+zwfL06/ePbMzkC27G9HWQC0O4eMfnwexvyA4IsibkVZ5PtM/HfgSIE+AfGdMVPnDwYCvVJb3FlxMhBgRxn+iYl/uvqmXp2WedWp0lmxfqV+/9l1hYvAdwWtghK5O3KnjKp6dJa3LiBWaul0RUiQxIBfLBoVf2r7nRCdSpPvNN8Bjdx9Xl93ZgL9o+PD46PjS0DYIgMp74V/9A/PSnl3LuBiQEn4pJICv5D/KegXzl3oJVPRIvdf3q+vSyWoo+8kn6/XN0TCpZVI6+6WMnRE2YLqW90NHr/9hZMBHzsq5J/bn2BnkXq9tikkx0JPaUf8CsWXv6PRPL+x5ZgU3Ngw74WqoXVHkXUrfXKNnTOomQykBQNfvcAJ/Nz+B/uKD1zw08rKMzs1+a/Ajf/YmtgYfL+7ui153JbvpGShtLFxyt64lsh+PP8ATba0qcUvaumAHRD2/4L534BiqSQ6O89c1GHw27s6IQbeqlZotSCUSZYTifKanQ+rfdGqE+Py4Gj/BgdOEx+3n1PCLmFzcVFsQVPEEm4lNv1vT8Pqm3+t/VVWiE7zhRv+sxcMf3VuLtOdjMYNHR5wAZjWXq1uv/5YTmxa7u7+CmvOG3lyenYI+nwEvYBk4h2f2sGzHskViwEeDCXdGZkZ/2D8WX7uh546LC46aafoIHr6Y/CqfGNnFW7hTiZSz58v0zVdfXma2OS7UDhW948PD3FuV0UPTV/Y3Nx7LuZ9l+mPpRcpmTLEGHC38jj+toj//RZ/bU0svg96Sp003sdqHe+gOSmfRVhGFj6Vefc1f7kv5bxwS1Qy8XHZRI/T+ukd/NIXMgPucqhZAJqw/MsTfeo8aPFfLHJa2UnDbXaTTI6zQL+TzyJwFpah9Yc7QF0Zz98x4F8r7/GBNYpgdXUBBKi5IjOAIuSBn1Wgc+x0vlfFghpNZdN/8VcWLVpZBDNUVCbtDOWhSm2aNQIuWNjmcV9rg9ycXd1eXVHRz4rFNwemwKp0+FfzJWMOyoX/nOe/Q1Z/cL2eev1GtNwrrsV/IaNnHFAh0gzSu47hrXZiEE3mYO+0zLRRa0HhE8y2GBS31JMa6o755bgFsLnuXqRZf+DlZ+fMEo11BPqO0+y40DMhAnOtF8nFiKoUtqPYqq5SWkghBy9F+Jctg2XFtM8xrfkmq9Ssr1/h+N0FUTzVBvUfXn9zvP7VDJNdNv+FB3iJA7oLBhslsn/lKmXhOVUoYCHx7tXeJ7rS0LSyDy1ga11anhXmId2t+JTZACBu/Ui9EWFyOu1YfK+lN3+Mc6Cwgp7jF1dxD5a3P60lqLNapg4ouXa+sL0NdtaUHxRr22+86MBIvPccIs5wQMnR3mxl9XEPxfUUHAcHnbQPfpQhKkSvyqxaA1DXEonEm/NVCT+YRfuvgPi7Agip/hzH9p1tYlJMOZjRbDj0XIo6aR/81BUsb5+XcdKCQaByC3+U5AcMqO13fMTfqv+jAyjLAsYPzNplJxx6xkHNE//y3vkpFf8kTJmmWASTcIg/4q/ZTDPF7xU+nPPy2xw3oDKHDD/UMqYrrScDTWXzpcf6p1b3Pr2h+lt+DQIDUBPouCR08MfOiv27PKy/mIAAZ5lzGSA2H9R8wNKbawb20/2jGEycrzFxTv2RpV46ZV9aN/6adzsJAnrtQhp/kN7CTgxbmVA09Isgs9AQcf/oagp0OJtV6KrjmcxEyul3aFjQtC1X2rMfsGeaHzF+Im8iClfaNPyR8a+kAypKqXIye/r1KwaGCWfZmNp/Hr+ZS6Fk/3Dv5Eup/84U2H3QJx3G5nvj7ygJf/wwj5+lJk7X6LZ/er2dAhIvriXTtm9qerbDePU/J8+fuBTADHui42+mE6t+k4xouRWtqPUuiJZdKyfW/jh/+WpvewHYcIl/xzO4TGHeXOT5BiqAPKwIqkWp8wgF8DKg+NXnCXhsHBnsZnK59gUeOMuubZbLifLm6Zs/lCTNf+VvSnt2U9FCmhdc32tOBWACJDQ4Ov4VHMX3Kim9KyvGuN0dsguM8ZE9IlLRUKps4gPi7zEHx8TfvBvOpQBcgEwNjo6/CQmM2+tsn64pWiODFxgjZdo9Atv/tvL3v/9qbyH2kOUHxN+jBsoHKMUhjLbLA7A3mBocWQGYADnxp/YglzfwCmBY/CqwkYu1a1rtz9+A/vz7LRZQLPw1xeMMycICpIWabuarOD6clfEzJRMaHF2AFtPZN86aQOo1vwcBb9Fl6TJyYGh//8bpLwcDaY/YTUz/WAc52QSWbZ+wZJBuPlgBqAW1dx9SqY9UKCsVmFvj8Nuj9hzdgxxJm/h/+xMYML+Fir/HEDoPfqwnJXXdAoRvUSoPV4C0Xe9Se6ebip7+E/Dh8zMgcCFwkKuaIel/f5MZMD0YXQWP2I1N78lHYNCCJpMyfnZUUpQdoivAYjpZto4ep7ah7/EWYP6oMAmCwFHD09RVov+w8P/WTFsanPaM3VB8bGfAxi4BYgNOIoiLjp9qnkj6UqlXX2nUqVWYktJ8SWvk4ATdgGhVxF/5T15/a/lBfNyxG3e+8oO2mADJmsL620KAHqAAKEBAe58UKAW8/dsSEIVQ70V/lh0DzNnwd9Jm/IbO1y0+7C4I2wkqJkBl+V3bcgwxFb/HBqWVxOtXr2nKAjXc5FsLIpUgTclYRxgzpPKX+eJflbT8FR5nGPj0uf3pEphE2vaKCZCwQNPw77j+AotHwwJ+edDbPyUJr8BFFBmz3BiT8Ves5Qfn6xW7fXAdHxEHeGxJAPpoIUDBCrDSrDTd7xD9Byd8usZU/WIZ67etl39UrOzRJ3ZDyyI5L0aa5tRgLkAvwuBXtKZLxLAqCi0PJ3xU4eLErPdS/P/wF/55K0f/aa8TYMyyuy4SwSlKuwZjDMFjoCkKkKaxqotFqAalOztJ5e1fdvigwlQDcsyDUTtq4v9bsp3Av8cRGH4C2HmXET/+K20XjyE6IfDvAH6PPVqBglBa8q7SBpDrGJV8QjLU+L0VgvVWUl5v8WF1Z48DwOz0u80Hw7lTIUBB8GGlmn5CRqXnHxd+2IBGptqlHmwIW8//rKRlNfIUH5yd9ToBn2FnwOQsAF0At6CBdUO6xk3vTaKLKAcH1gak4T74apIMaPhe5Bv0X0Uu3Ta9xIedhfW8xQV9sG0DUIO5AgQqMMW/44kfQDiVl0sKlQFqQsEIjYr/eijvStJTfLA06PmQy7Z7A9DS1qYrgC9+sKEVD/i//XYKQsB8WI/7tr9tRnjHS3z48ns/3Aw6qbYNYJ6OKcA0/Ite70ETmv7XLf/oA4wRBhFzDWaf/pSVlxUe3NaHSb/3fZptlwnCNJIrQBD+RdYfc+PH7nb67Q8PBqgPM2K4AUUmYZo9c097iA8zPr7PFbpADZACVmzScAUIxl/xxL/IXJhSkaIfQTQKKu5CEFFl5l/2vGzn3LEPt/1+15myy6MkJ8xiiM50A5REIfPWX8ZBxenD/qEmdABhNA3fXNKDZU9X7MMC54BLyDCPlLUGLVBlOv6OD34RRHhx8C/1Yd0YNBDBfHZsph83zi4+EIkHXj8zJ65AKVt8o7marsD++HlrlXNgkyLqw+CRJnMT8gNMv2LfN1tPC7C//nR+Gnz9z5y4gKlsMo4xEEsiA/E3ffHbOXj7Q7JFEERQH9Yr/oWm31l1FtE8TT5fvkskypssFNfjQdc4GjgOYnKOCjBdgQPxMw74WG3l7b+mO6MmVO/lMjpV307aXvWEpkt5FcGvvnyT2MxKYyxG0COah0yFRSLDplQ6j8Rv2wPt7UAoAiSS7SFV3x8Ve9UQtBdiYcycpfkVTkF3qGEUwXi3PMA0BZ6K38ZBmooRbsIPnW7AbvEHtT329Ae19xWMAEizpgacU2LV0gAVZnG02TLAVgxT4Mfhl6UIXNrpf/+ACVX0gf4XlVnX8idPUy+zZQu9TuKZuWobn3ke+GS8a5sNQpNbmabAofAjB0kzqay8Hfw3QCwDh+dFp5H9oJQtoTfImC95GzU0SILQCwsvxhR40Q//Dis8BNhPBweiv42aIGb/lM6KRYv8HZbK6oSMrNtCqnC8MOgiTS5BSXb9GyRhzAB5eacaW7mV2nT8FsCmc7aPKu9Os9nsACnptO01Cr5ntzfsCcQBl/kyG7TGVAA9sJ8BguykA1vgHf8IwBQeUFNgrDnwdzoO0OYOucADTYpTvBi7QbaMkTTOeaR9DSj87s6KLX4WYoCIAWxakCdGf9LI4NrLV6GABF5GLK6vTtkMkJdQYIBfq/FC6SLCpqiTHHBUyDKRCz8ZgVQ98MFCVXF9eIpFEP4GdKXDf61CoTdrD1lmb9IcJiY2vDbZgUQl+CJTpgI0EEphuYhFQB74V1ZMXfQCrumGUSRuKhYN8TxMO6GPAielDdrWFWOxSYPY2EEBCnyyFnvUbDa7KkVA7pk3uuKea6cz1EajN5rsdoftdiaXqzLK5WLt4fXuaDygbKClTlegKcOe+z6qgljTGEAb50SBd0jf6XgGBlRrpzyYJM6evnC64GtAqZtxLTkDXuudXA9j0277phIB+UZzhRWY4Bf/KbsAAAfNSURBVKt4RzeGTx7kxfUG0cnY8V3dqQIkHt6RfWNFcA78OxWmpJUKsqFT5Mb45Lod8olpVXgMKbGmRJqKOVAClQRMbUDUDaK4TGh1ugBRI6SzHYCdrbnwr7xYaTZ3dhaZraxRg3zdjvSMhCo08ST8aIr5RABdXwML7G1CBl7Zbk2b/nDRKkYaTDAr7vW3z4RWIj8jBPBndAs/HoUQVh0e/AXFleuh9yLDmfepDxetWk/s8HQA8nRZxYj6sGfAnxto9vMW4la0sU5zezPmqbYp2RjBoeGpj6bKmQ9O8HZgKy9MFqI/aRLXf6yb+FGBRWpF8QkFrp4IC2z0dm0TA9MfaGAywCJoD/8F8g9cdCI/Khbxxy38EPSbRpEqBk2N8Z8Xg0bjojc62e22rZZTBnCF2HLBQNoXP+eiE+ZqeDf+kcGLG9S3dBRpJoBQ9QywwBmwvGGeLVc1mI9ZDM7AVpqRH5SG+E+M9OILNh64IhvQuYZmSB0+12czODIT5ierA3intwO244/4hBnEPzFszWrTgFIDI6q7XpSLdafGoCZBPsbaqAH4d9JRn1GE+HeLVskf8QtIu0V97I8/E4uFx4+x3BT89MeDqjK++K+LVurL8LfFj/IZA7rY3cnJ6GTSldwjtbzgwcLhR1vVmYo/6oPeEH9Xwo8OWLhBur4atuirDSlsjXer/KM5aFaEUzlWlZ6CfzEd1QEw/ESq/AB+cashjXCEA5ir5jIx8GDtISVgIEfxw7Hxou+Xy4T5cmVaBSgd1QFg/ENl05rWwChQ5LUE2ks+8hFj66+Fex5MNRT+mhbxSZlu/Jg6iNYWOjBv/Bh5UPkPu+Oh8HeiOgDE35bxYy4kvkWnDkxMKWZo+mMmQLj8aH/CPluXiAAosII49dEgU/FjKo1RfTWTqYEDi/lRphvh4epGKPxRDWiVL2PHgb8N6gmRqXHijz+HGWTIX9IEfn/4DzCgbvxNTIEnDGBD0+P++EF8Qhs8KDiGwB/RgCL+jGGdFuH4RxmBv5fLCAL5h/8Tyw/5S2iHD64OAujg8mw6pDmz4c9peFxWiCAaUIFfa3S73etd6nx744vBAB47ORky6YeQIHzAOwiDfyWsO7Tjp99t4scAQrvIxTK52PUARuyxUmQYus4qMkpv0gb4bSgehU9YAX96Kv5axAiU4b/QrM4Rw1/Lta97pGiryhRJY7Q7jOVQgHJDmBXzmYHwIpyLqDSDT/GAA4gUgTL5H+sO/HAIFOtamq7TpTdQpK5jTPhBE9ojzKki/FiPl8k6XlOSJv5mxGe1M/xx3TYuaS04GYzjo5OTEZX02mTYjuUgCOrujhoE61IkwnPVT8RDgNNNfw6o9EZ8VjviHxnSzA/HXyS9a9MXwqMQDSsCZTUdhcSDvtlBQ+sBlAEc7EQ1QIjfTMCgDsZ/ZNemR5r5CGVzd0jEJ+rKz5/05yAd2iFK+DGBwW5HkzfGdMfS5sYGLjyjopUFhKc2kdYgTSMWTw7SUyuSHvghAGXtDvH9Hm6wGhteUzcwollY6PKq/QviRHp6blrZ8eAADGgkAxTjAZyDHvKs3xAcTBRpE+geuKSIGtBoEZAXfiraEdPo8NSOyxy49IAa0MCmoDd+9qxPRUdDr+jjJ0MPVD2R/WK6YxMjakCD2vpuYnEOtOKI0ZvgNYDRH7MckaoTGwfpJjQATAMaLYJg+Guadj0Ev4qyH9GwPIDsHFAWOk3WxFgBAxRF93I8zlTYP8ahCyKPJTsH0HisUSZ26PpHUmAG+0KvZbgn/inrj7RbJM72J1rwSAqc4wEcxw8D/D8L/9xcd0Bcfl0Jn5ICsQCOBocsq4Io5WlsvzdRc2qeHbWcTwTvyANQQ2f4M8UoOcksqNodE2LYeIjifQT+IsMPChwxgp0BtSdjEd2CPEUBUOVqS/j60zA9YgQ7I6rGoLIagzQhTEvHJIGf1RQy0FP8OQbUB074lgL/AFt10o6ZodDPVGAXhetpWuTAn5s21fPUBB4oShubJ2BkyPGP9YgR4IwJq0oRNDDD8Xe5AgP/0VK42RKbCgn//hxzu6JOjj3RaCncjAl7UuEVgHfwirsZyQA9aQIwhSCEiaAAHL+o82NVM2oXcKaUCTEWJRHv4Jl1/naUoviTkBa6KYvEFp1XzBl+Z/Xk5xLG8OElmIWdok+R+fX4I0pABhed9SlywxOoc/9a+UEXHL6PihkM0S6G15P4gLDB+J8aQbsIStXhiwg5VkDRiDnOqv3KAG6ODWaGN4FogGpSJqr90vhtjrngCCFEjA9iMDLI4KnrP1OpEcmC8gQYmy6ExH/x4gPtRspiMzxq0wajbrTu/VMRDKuED4IzPGr7pWG/nQbhy2gsAe5GmMT4CbQbNohk8wMsavilUZudQICM6UGAQI8z0L+gbuJPYIGMwUngMHrOBJ/JxegHfmna6CAcrQZ72DjxHh6v8nANsHdPLqCSGqns8sRUFR0htOkXI/tJjCrGarlMjMU8LOiJMIvxE2gsVxQ1dhKmdtGD7iH0EEfx3sXAIEQ+wvOLozY7DV0tRXjar24I0nXNUXyP1E1/ehrwg0UhSSdRjz48NeWux0SIdjCBjvT+PyIHB4FpKbLGv01gNA0HY9iZCv1iFHUW4KdSFUZecP6rMYDpzlpt0Bj34jAHMPSdro1G/wPFj/5q024wdgAAAABJRU5ErkJggg==;" vertex="1" parent="1">
          <mxGeometry x="558" y="24.85" width="52.56" height="72.65" as="geometry" />
        </mxCell>
        <mxCell id="LtA9Es2iq_Jr2EM257ws-10" value="" style="shape=image;html=1;verticalAlign=top;verticalLabelPosition=bottom;labelBackgroundColor=#ffffff;imageAspect=0;aspect=fixed;image=https://cdn4.iconfinder.com/data/icons/computer-and-web-2/500/Settings-128.png" vertex="1" parent="1">
          <mxGeometry x="580.01" y="194.75" width="60" height="60" as="geometry" />
        </mxCell>
        <mxCell id="LtA9Es2iq_Jr2EM257ws-32" style="edgeStyle=orthogonalEdgeStyle;rounded=0;orthogonalLoop=1;jettySize=auto;html=1;entryX=0.278;entryY=0.528;entryDx=0;entryDy=0;entryPerimeter=0;" edge="1" parent="1" source="LtA9Es2iq_Jr2EM257ws-45" target="LtA9Es2iq_Jr2EM257ws-16">
          <mxGeometry relative="1" as="geometry">
            <Array as="points">
              <mxPoint x="770" y="370" />
              <mxPoint x="770" y="310" />
            </Array>
          </mxGeometry>
        </mxCell>
        <mxCell id="LtA9Es2iq_Jr2EM257ws-33" style="edgeStyle=orthogonalEdgeStyle;rounded=0;orthogonalLoop=1;jettySize=auto;html=1;entryX=1;entryY=0.5;entryDx=0;entryDy=0;" edge="1" parent="1" source="LtA9Es2iq_Jr2EM257ws-11" target="LtA9Es2iq_Jr2EM257ws-15">
          <mxGeometry relative="1" as="geometry" />
        </mxCell>
        <mxCell id="LtA9Es2iq_Jr2EM257ws-11" value="" style="image;sketch=0;aspect=fixed;html=1;points=[];align=center;fontSize=12;image=img/lib/mscae/Docker.svg;" vertex="1" parent="1">
          <mxGeometry x="573.42" y="353" width="73.17" height="60" as="geometry" />
        </mxCell>
        <mxCell id="LtA9Es2iq_Jr2EM257ws-31" style="edgeStyle=orthogonalEdgeStyle;rounded=0;orthogonalLoop=1;jettySize=auto;html=1;entryX=0;entryY=0.5;entryDx=0;entryDy=0;entryPerimeter=0;" edge="1" parent="1" source="LtA9Es2iq_Jr2EM257ws-12" target="LtA9Es2iq_Jr2EM257ws-26">
          <mxGeometry relative="1" as="geometry" />
        </mxCell>
        <mxCell id="LtA9Es2iq_Jr2EM257ws-34" style="edgeStyle=orthogonalEdgeStyle;rounded=0;orthogonalLoop=1;jettySize=auto;html=1;entryX=0.5;entryY=1;entryDx=0;entryDy=0;" edge="1" parent="1" source="LtA9Es2iq_Jr2EM257ws-12" target="LtA9Es2iq_Jr2EM257ws-15">
          <mxGeometry relative="1" as="geometry" />
        </mxCell>
        <mxCell id="LtA9Es2iq_Jr2EM257ws-12" value="" style="image;aspect=fixed;perimeter=ellipsePerimeter;html=1;align=center;shadow=0;dashed=0;fontColor=#4277BB;labelBackgroundColor=default;fontSize=12;spacingTop=3;image=img/lib/ibm/devops/continuous_deploy.svg;" vertex="1" parent="1">
          <mxGeometry x="576.71" y="530" width="60" height="60" as="geometry" />
        </mxCell>
        <mxCell id="LtA9Es2iq_Jr2EM257ws-14" value="" style="html=1;verticalLabelPosition=bottom;align=center;labelBackgroundColor=#ffffff;verticalAlign=top;strokeWidth=2;strokeColor=#0080F0;shadow=0;dashed=0;shape=mxgraph.ios7.icons.trashcan;" vertex="1" parent="1">
          <mxGeometry x="579.21" y="690" width="56" height="50" as="geometry" />
        </mxCell>
        <mxCell id="LtA9Es2iq_Jr2EM257ws-15" value="" style="shape=image;html=1;verticalAlign=top;verticalLabelPosition=bottom;labelBackgroundColor=#ffffff;imageAspect=0;aspect=fixed;image=https://cdn2.iconfinder.com/data/icons/social-media-2285/512/1_Slack_colored_svg-128.png" vertex="1" parent="1">
          <mxGeometry x="200" y="300" width="70" height="70" as="geometry" />
        </mxCell>
        <mxCell id="LtA9Es2iq_Jr2EM257ws-16" value="" style="rounded=1;arcSize=10;dashed=1;strokeColor=#ff0000;fillColor=none;gradientColor=none;dashPattern=8 4;strokeWidth=2;" vertex="1" parent="1">
          <mxGeometry x="870" y="215" width="180" height="180" as="geometry" />
        </mxCell>
        <mxCell id="LtA9Es2iq_Jr2EM257ws-17" value="" style="outlineConnect=0;dashed=0;verticalLabelPosition=bottom;verticalAlign=top;align=center;html=1;shape=mxgraph.aws3.ec2_compute_container;fillColor=#F58534;gradientColor=none;" vertex="1" parent="1">
          <mxGeometry x="925" y="290" width="70" height="40" as="geometry" />
        </mxCell>
        <mxCell id="LtA9Es2iq_Jr2EM257ws-18" value="" style="outlineConnect=0;dashed=0;verticalLabelPosition=bottom;verticalAlign=top;align=center;html=1;shape=mxgraph.aws3.ecr;fillColor=#F58534;gradientColor=none;" vertex="1" parent="1">
          <mxGeometry x="1020" y="202.75" width="50" height="52" as="geometry" />
        </mxCell>
        <mxCell id="LtA9Es2iq_Jr2EM257ws-19" value="" style="shape=image;verticalLabelPosition=bottom;labelBackgroundColor=default;verticalAlign=top;aspect=fixed;imageAspect=0;image=data:image/png,iVBORw0KGgoAAAANSUhEUgAAAMoAAAD5CAMAAABRVVqZAAAAjVBMVEUaGRj///8AAAAWFRQUExESERAPDgzNzc24uLixsbFYV1c6OThVVVVFRETGxsYmJSTt7e3Y2Nf5+fmTk5Ps7Ozb29v09PS+vr7l5eUIBgNcXFt1dXWoqKhOTU2NjY29vb2fn5+Eg4NtbGwvLy53d3cnJyZmZmWQkI8fHh1BQECbm5s1NTSFhYVpaGikpKNr6lRAAAAQ0UlEQVR4nO2dCXPqug6AjZwEaNm3ElpoWUtpT///z7u2QyCW7awCcmeqmTfzbk+b5IutxbKssMatZDQf9tq/49V697rZbF53q8+Pdqs5nd3shuwG15z3TrslxBKGgZTw8oP9YtUe3oCIGGX+vlIQoc+ZS3ggf4Ntfpu09yZEGbRemXhG38mgA8lh6o4JcahQhuOtGAv3UNjFFziHNtFkI0FprsWc8QpixCJGZ/lGQVMdZb7iAEWHQxfxIp5aD0dpdatyXGjW8weiDFa5tTxbxNguXx6EMt3QDMhVAji+PQBluICQlEOJGJqPO6NMnyCgB6kGUwpl8O9WIBFM0L4XyuoWU0uH2ZaIAoqjtET8dHPx4VDYaxZFmXeJrZZLQvi9LcrplkqCBL6L+cxCKPPvO8ytq/gwvhXKB51rzynwXGBg8qPMlncdkkgCyG+Xc6M0b22BHQIbapTxnQyXhWWfc5LlRFk8YHLF4kOPDmWwfyCJdP4nKpTh3S0XllwKkwPl/WFqkmBZUqD8PnRyxRJuM2OyTJTPWpAID8MHFVF+akIiDdmkEsq6NiSSJd3BpKPUiYQxL31cUlHqM7si8SFNX9JQTjUjESw8xY6loLRrRyLs2LYMSq+GJMK/uH2lE2VaAx9vE3cM40KZBfUkESyuVbIL5et+6YiiAo4kuQPltZaKEgl3uEo7yhstSbRTTHY5v58fZUpKEsC6N52+bEpv8RkCh9woR7Kbyvt2zm5tvifTP2sexoayoRyU8Oly3VHKZn5BsamLBeWdkoTD6HplOq/rf+dBmZH6Rt0LfJElCWCVA2VBmrrTY9kW3YDDNBOFdHqxENkauhH3jcDSQKENvQDtXq0IhwUnxzDKjnRQPPzq5oSXx+swhELrHBkY2/BPdLFduEhFoTMxSpKWOBLKVRDKJesohBZG3WuHScQN6XTR26eg0LljJabBlFtnhNfX5i+71W2E+F2TRHhguhtwcKGMiNfAYK3x2hC6YM0gJ1HGtIOiv7OLDEmHJWFXEijkg+JYhH8TWsnkPRIo1Bk8V1qUMr+WHPkECnWd2sKkoL9RouLqikK8njfCr6tQpqJ5YEHp0w4Kt+cSpFAGYgkzeUGhzqumFQ4tCZNs/rOB0iHO4enhV0/z+y+kwzJEKKSDLiTUw6/FWvvPwhXvaXd6RSjUu6d6+DUD3V2S2v14/GMU4kDS/9Ie/QP0IIYyELskxc4o5Eqvh19HjkLLf4SBWHzpM8orbYUUCr+agGdck3RY5kkU6kHRs1RyDGCt/WhLmMs9x8cRCql1ZDj8UpqBBooytjinKtkt5lfwpD12tKJDKWv6GRahUIf3ev4gComQUaOsbogiC0auhGIu6QmD+Oq64lOmqYLlBYUwZygFHXWIV8AoAOhSrsBGMco35daQuLBW8nB1h3pYRpmcVjNaogxoB+USFEVyLY1DuUpCBVWWnhG/H5YIVSPZX54Y7e8QZkX49oxCWyp1XUBoSi9Fh5wQp8IlCqXnNfxHMu2Fpt6CbokkyxKYTBqRXZEZXl2PgXXFJ/QB8KlQaL0K/DiUXv2jrvh7MsWXnoVRV9+ibWh98qKtI8I7g0KhTOKyoONUenVHLaNEOLXFG2SUw8yM8Au/plCv5tqRvUWh94w2RuVce1TzteuRAF0gJtYsjDjBpm/bmqsSFJ+RbRiK4Wa0y3r9pVs8Fkpaku0YCsfMSA0YUgXbVgpKJZMFYiBQKJPRKPyyLU5RfQXZ+gJmjDJ88PR40W5r9TlIFojBlDWe6SIwFH7ZUxHIMlC9SWgyQluMNx/tYSpaLlNZHWhRoqBUl2v/FHnRI43iwy8jTN+i8MuVkUI7e0TFAvDJ6DxkoJfLu9+RXjJE9C7DNSOMHfSq7NmX68poF5wmnxhsGFlFQGKD8yyu2jL0mzRPEBwY2cLLUnHQdvhypPjPFIGYv2BkIZjt8NLUt04elFMmqUnwlowqiY8LPiMZ2Q/po0ILikCMd8lQXBUH1hBPZhWyfqeg8C8qFKPg8yIvlsPUKC6gcAh0KGbB5/VBj+YtkOEmKBoQE4xI7c2Cz4SYjQeQOyV4n0LtaYyxreAzIWY7CBTkVD9ZJowxjYOyFXwmpYlb2aCN1+o1CcJFkqBYCz41GaBuNqn52DIiAheScBJVHAz7lvOx6IAP+pPKNQkinKQITPGaawdoka/kV1MYpPiVVVYE+RRLL+TxxCW57TTWUFOY1ORyiWf4oEHRwy8VU6ElpZJZN7lvpP9C1ZoEaDOCjSJc8BlFurC0uJpE3I9nZVWUHkXyCIVf8WIu5JZjcu3r6Ug0BytuI8rkUeWdSH50vHnPVsk+9WJbhcorKppSGLDqaQJc8JnUB/OcXCLuR361WnGoTLRWjn9Q+KUtpEDfOYokTq4ixa+05y4ic1Z5jwPVe6B9BjhaFCaO+5HiVykODf8JlKq7aGia4DdjbYk179vqqqrUJMBY7npVO7KElNe0Itx6YkLF/Z5erVClQEVYGFY1/MFWyrJOt54pP8lfRPHNobzii7nBKgbY2NFZsyewtWRjZNyP9KxCIBZtdldaR2Jza99cDGxJDBn3I+u3Lxt5yGnOKq4VUFDoMofcetpgAyglUDoQkzUccrOjwrYASs6lhA7W/itvoCdqSltTeI9QKhQCYEubkpyDL8t6bIhmXtlHkTlCiVI+0YnDr9QrBbb12Eyv7inpr9VOmvxf+UAO97ZOL+20rscaRa7gEmUJ1cZgaWVBFQeZ7zQjx9QoW5OgnJtCKRvno4qDHNexrsc0KZUKV8tYhVLWs+DJn+MxQi8jY1amJiEKns6F7CU4jILPfJPDuh5LSJmahKgUIEIpF/xgLc6psqgkEUuJBXoUnLP87xMLDr9yG0LreuwixWf7uZopQinlZfHbzb/hE9rWYxcpbE/PabhzlUaZGYb7DhWwPaktigsnG86LvzNKiXU1KvgsNknt67FIioa38YZbXDtT3JzjF1vQT9t7fCkpWJMQB90xSmEviQo+i0c/1vWYkoL7JHHIEaMUjuNwn57iu7zW9ZiSQiVqQTy8l+KsorWlKPwqE3DY12ONgqH65YVcUAq6Fhx+lQwDHf0wC7yXa4nstWSuWEINT46SWVJ4tvaPLaC51yX1FaVQ4gUVfJZf8ljXYwU8fiLkuKIUMue44qB8ja11PZY/uZfYcEvUZBaxx7jbTJWCG8t6LP9rTVifBEqBPCfenatWjw5dvB7L7RqSD5KslM0/LDj8qtg3IwzQ9XKHYUmXkETJPaxoo7p65RBH6zGec75qs0OrX86rvLgNL0FhvbZiyD09ND+toeRs4ITqt2mq7GB5eazcb0YPr/WnyncAxFuexkmh6YoYwK/S/p6zqBcLDxtulJwrOA80ITqwxQG6h2WBzzYiBUMoD27D7gcFmrDg/TY87Wk7tN5UcA0aRiE+sH5DMYpojB6t9fhyTLaYdfNmE+Aat5VPipmzMVGoe1LdRuDVeHBLw+z/wxTjnvnctjbmy/pbMduCzYZC2/37FoIrHJ0oj3aUmRJYa4HtH2Ig7lFDLBwnrtJQ6q0ujlSgA2XEHv3ZO7e4EoGu76/Ma6v6Fo+SjlJb1Xd/rMj92SXqnq00Euydu+UpH8OqoxnzUj5SlvaJsvp95cf1bZ9MlMahZizcmmDOhfLQr8Oawt0tkrNRGk81YskgyUKp0bhkkWSiNP7VhCVdT3KhEH/GpKxkfcIzF0otPhsZHrM+Epvvk8qth8djkHlYMScKOm/2AJJcX1PPhWIc0LyrcFxsWgmF+AtshcRddFESRQTKj1mMWSutq6E0pv0HDAy3nRarjCIj5XtbMghyTq6iKGJledeB4fAvqyq5NEpjtLnjwEBaVWJlFDEw7E4D42cXvVdEkZ9suIO/5PCdFT0SoDQmC7qvpDoEnza6FUqj0fy+qcpAAQtcFaXReOnfDCaEXV6nSIIiwuX+Tdw/wM7x4anboYiReaY2ABxgnb0uuQGK0JkDEM6zAPyPIi6RFEVYs3FIMzRiQDqOz4rfCUVITwxNRRrBcTyVVRFCFBHOtDsVanY8AP+nsD+0CAWKkFlbjE1xk8ZDgO2KgqNBhiKlOf4SOLl7SnkCI9y0K8+rixCiCBk1T4tQVoil1kLxQFaRfe/amamtQkKLomTS+3jtxlVvQeBzJZ4fhOcfHher9rCK2bXLDVAimU177dPq9dDpbvvHY3//vFxs1uO39yHtUCTkZij3lz+UOsofSh3lD6WO8odSR/lDqaP8odRR/lDqKH8odZQ/lDrKH0odJYEydW7I9vSzbqPJxLp1MO+1fz/eWk1bTmUwmJjposFkIGUysO8Nue5zldmw9fb71n5vzkdJlLlzA/AT9DKTIcDR+KXRKnHwc/uKs/Jdy9W3iWOiB0savw3g/LyD+vevxAVY64qyBm9v/5NOoB+zGALqSNpQLyJKOkoJfOOkXycwuh00ZYvwc+bPCy1dKlqQ1rR+sgf/+vZCSKAAd52meAr0Sngbiu8z6JxaL72X1sfPwuzSYEXhx/FKye4ILDTUNhVlBAGD7arVa/Z64pYHf3j5+zYwL/znQtG6flpQ3kF/DxP8iu0o12nwBmYf51SUH8D9yS4oz7639O3HdQQKT55DtKCsIHSdxYjEjpL4TOEKjFN1qShi0qP+PjHKUDxLD/C/RvIU8OekulhQfiCjF1smyhyMhj1pKCMwukrEKLtQTBDwufE3DYkCzW4QXA5SW1B+k5PFJpkos+IoyFKz+F+8oxxka7GPQOnNgF+skgVlItS2k7bPkIki/gvrfeoE8zh+1vOfv6m5NQfcPlaJRJGnjOKWFDYLdhIsac0+M1GWgTG7U1HGhu84o2yjMy7iepYNNYUi1IGfh9SGIljEe+o7GzFmWLDZAkLDHab7lX4Y7LVxYeerRh9TeAfbOdAIpSHUJep0ZEVpDPvAOTBHxGB3kexVyaYrvKrZJzQdZfblCQ/ZXSqJv28v23+fJw/gDowJFKkuOzeKmqUCxn7Wz4ESRuLLjrFG6JaOog6j8UAJfMcownrwQG05C8V/d6HIe6vOFi4UcfVAwVh0Jj1wkZFHWExXGl/iaS7SjlGEzkLUQk0ovnlYL0aRjeylMXejiKDhKGG6hqvN8vbTVzDaW6WiLGV4oA2kQhFv5yRYpL8Wim8M9AWlsQz9bTqKgPGlMcPWI9OCqfekv4E0lB4YESNTPw46UvNlcNqyuO0rykgAbzJQVHgUoMYkOVAaRxyEpqG8hvgDEAplEUgFGWxBtlCzKP4VRfZRhPY8A0XFhqgzSQ4UEXCstV9IQ+n6RgdeJj31+ekX4v+0T6bWJlCUWrWyUOQLRkup+6B8XuaUiE5h6eGuNRpK4ykUK4sslL0RVeRAEW5a1/viEwyuZ0DfRaRttq3RUEayfCUDRVptpPfZKC3jj9JQ5G+jiiUmHj/xB9MgML+ooqGo5nAGyqLzduVvAQ9xLJdljGWfElzvnWqM+z6HZH3icMCk+U3cZCRbWqEvPego8qYGCsh1/fPm5/SxOqhVPk6VOLz9shvJFwgSfFHx5rWeV9oxqTmEwkUud+OP02q32IJY28+xydoA7lzzFOo/OABuOzmRlUa+p0qLAh7Cl5H06ZhxsxiVc9yhYg+zJcAL8KSgXxgsxTvzw6i+yQ9gxUSostav8At9NCoIpbE3E0Gz1u778vYsix4LilBd34vEP3bGluzZIfQSYrAO1/34lv7hNC2XnXQssgbT4XBYvlC4zIPMxR2nkbX4D22I/mRPhzWdAAAAAElFTkSuQmCC;" vertex="1" parent="1">
          <mxGeometry x="710" y="127.35" width="66.58" height="82.07" as="geometry" />
        </mxCell>
        <mxCell id="LtA9Es2iq_Jr2EM257ws-22" value="" style="shape=image;html=1;verticalAlign=top;verticalLabelPosition=bottom;labelBackgroundColor=#ffffff;imageAspect=0;aspect=fixed;image=https://cdn2.iconfinder.com/data/icons/essential-web-4/50/angle-double-down-arrow-direction-128.png" vertex="1" parent="1">
          <mxGeometry x="592.21" y="290" width="30" height="30" as="geometry" />
        </mxCell>
        <mxCell id="LtA9Es2iq_Jr2EM257ws-23" value="" style="shape=image;html=1;verticalAlign=top;verticalLabelPosition=bottom;labelBackgroundColor=#ffffff;imageAspect=0;aspect=fixed;image=https://cdn2.iconfinder.com/data/icons/essential-web-4/50/angle-double-down-arrow-direction-128.png" vertex="1" parent="1">
          <mxGeometry x="591.71" y="630" width="30" height="30" as="geometry" />
        </mxCell>
        <mxCell id="LtA9Es2iq_Jr2EM257ws-24" value="" style="shape=image;html=1;verticalAlign=top;verticalLabelPosition=bottom;labelBackgroundColor=#ffffff;imageAspect=0;aspect=fixed;image=https://cdn2.iconfinder.com/data/icons/essential-web-4/50/angle-double-down-arrow-direction-128.png" vertex="1" parent="1">
          <mxGeometry x="591.71" y="460" width="30" height="30" as="geometry" />
        </mxCell>
        <mxCell id="LtA9Es2iq_Jr2EM257ws-26" value="" style="sketch=0;points=[[0,0,0],[0.25,0,0],[0.5,0,0],[0.75,0,0],[1,0,0],[0,1,0],[0.25,1,0],[0.5,1,0],[0.75,1,0],[1,1,0],[0,0.25,0],[0,0.5,0],[0,0.75,0],[1,0.25,0],[1,0.5,0],[1,0.75,0]];outlineConnect=0;fontColor=#232F3E;gradientColor=#F78E04;gradientDirection=north;fillColor=#D05C17;strokeColor=#ffffff;dashed=0;verticalLabelPosition=bottom;verticalAlign=top;align=center;html=1;fontSize=12;fontStyle=0;aspect=fixed;shape=mxgraph.aws4.resourceIcon;resIcon=mxgraph.aws4.eks;" vertex="1" parent="1">
          <mxGeometry x="925" y="521" width="78" height="78" as="geometry" />
        </mxCell>
        <mxCell id="LtA9Es2iq_Jr2EM257ws-35" value="Developer" style="text;html=1;strokeColor=none;fillColor=none;align=center;verticalAlign=middle;whiteSpace=wrap;rounded=0;" vertex="1" parent="1">
          <mxGeometry x="60" y="185" width="60" height="30" as="geometry" />
        </mxCell>
        <mxCell id="LtA9Es2iq_Jr2EM257ws-36" value="GitHub" style="text;html=1;strokeColor=none;fillColor=none;align=center;verticalAlign=middle;whiteSpace=wrap;rounded=0;" vertex="1" parent="1">
          <mxGeometry x="237.5" y="185" width="60" height="30" as="geometry" />
        </mxCell>
        <mxCell id="LtA9Es2iq_Jr2EM257ws-37" value="" style="verticalLabelPosition=bottom;html=1;verticalAlign=top;align=center;strokeColor=none;fillColor=#00BEF2;shape=mxgraph.azure.code_file;pointerEvents=1;" vertex="1" parent="1">
          <mxGeometry x="160" y="60" width="27.5" height="30" as="geometry" />
        </mxCell>
        <mxCell id="LtA9Es2iq_Jr2EM257ws-38" value="Push" style="text;html=1;strokeColor=none;fillColor=none;align=center;verticalAlign=middle;whiteSpace=wrap;rounded=0;" vertex="1" parent="1">
          <mxGeometry x="143.75" y="90" width="60" height="30" as="geometry" />
        </mxCell>
        <mxCell id="LtA9Es2iq_Jr2EM257ws-39" value="Webhook" style="text;html=1;strokeColor=none;fillColor=none;align=center;verticalAlign=middle;whiteSpace=wrap;rounded=0;" vertex="1" parent="1">
          <mxGeometry x="360" y="120" width="60" height="30" as="geometry" />
        </mxCell>
        <mxCell id="LtA9Es2iq_Jr2EM257ws-40" value="Jenkins" style="text;html=1;strokeColor=none;fillColor=none;align=center;verticalAlign=middle;whiteSpace=wrap;rounded=0;" vertex="1" parent="1">
          <mxGeometry x="555" y="90" width="60" height="30" as="geometry" />
        </mxCell>
        <mxCell id="LtA9Es2iq_Jr2EM257ws-41" value="Agent" style="text;html=1;strokeColor=none;fillColor=none;align=center;verticalAlign=middle;whiteSpace=wrap;rounded=0;" vertex="1" parent="1">
          <mxGeometry x="670" y="40" width="60" height="30" as="geometry" />
        </mxCell>
        <mxCell id="LtA9Es2iq_Jr2EM257ws-42" value="ci-cd pipeline" style="text;html=1;strokeColor=none;fillColor=none;align=center;verticalAlign=middle;whiteSpace=wrap;rounded=0;" vertex="1" parent="1">
          <mxGeometry x="565.28" y="130" width="89.44" height="30" as="geometry" />
        </mxCell>
        <mxCell id="LtA9Es2iq_Jr2EM257ws-43" value="Elastic Container Registry&amp;nbsp;" style="text;html=1;strokeColor=none;fillColor=none;align=center;verticalAlign=middle;whiteSpace=wrap;rounded=0;" vertex="1" parent="1">
          <mxGeometry x="966.88" y="170" width="156.25" height="30" as="geometry" />
        </mxCell>
        <mxCell id="LtA9Es2iq_Jr2EM257ws-44" value="Production" style="text;html=1;strokeColor=none;fillColor=none;align=center;verticalAlign=middle;whiteSpace=wrap;rounded=0;" vertex="1" parent="1">
          <mxGeometry x="930" y="340" width="60" height="30" as="geometry" />
        </mxCell>
        <mxCell id="LtA9Es2iq_Jr2EM257ws-45" value="Push" style="text;html=1;strokeColor=none;fillColor=none;align=center;verticalAlign=middle;whiteSpace=wrap;rounded=0;" vertex="1" parent="1">
          <mxGeometry x="690" y="360" width="40" height="23" as="geometry" />
        </mxCell>
        <mxCell id="LtA9Es2iq_Jr2EM257ws-46" value="Deploy" style="text;html=1;strokeColor=none;fillColor=none;align=center;verticalAlign=middle;whiteSpace=wrap;rounded=0;" vertex="1" parent="1">
          <mxGeometry x="576.71" y="590" width="60" height="30" as="geometry" />
        </mxCell>
        <mxCell id="LtA9Es2iq_Jr2EM257ws-47" value="Setup" style="text;html=1;strokeColor=none;fillColor=none;align=center;verticalAlign=middle;whiteSpace=wrap;rounded=0;" vertex="1" parent="1">
          <mxGeometry x="576.71" y="254.75" width="60" height="30" as="geometry" />
        </mxCell>
        <mxCell id="LtA9Es2iq_Jr2EM257ws-48" value="Slack" style="text;html=1;strokeColor=none;fillColor=none;align=center;verticalAlign=middle;whiteSpace=wrap;rounded=0;" vertex="1" parent="1">
          <mxGeometry x="205" y="270" width="60" height="30" as="geometry" />
        </mxCell>
        <mxCell id="LtA9Es2iq_Jr2EM257ws-49" value="Production image" style="text;html=1;strokeColor=none;fillColor=none;align=center;verticalAlign=middle;whiteSpace=wrap;rounded=0;" vertex="1" parent="1">
          <mxGeometry x="558" y="330" width="100" height="30" as="geometry" />
        </mxCell>
        <mxCell id="LtA9Es2iq_Jr2EM257ws-50" value="EKS" style="text;html=1;strokeColor=none;fillColor=none;align=center;verticalAlign=middle;whiteSpace=wrap;rounded=0;" vertex="1" parent="1">
          <mxGeometry x="935" y="610" width="60" height="30" as="geometry" />
        </mxCell>
        <mxCell id="LtA9Es2iq_Jr2EM257ws-52" value="Deploy by helm" style="text;html=1;strokeColor=none;fillColor=none;align=center;verticalAlign=middle;whiteSpace=wrap;rounded=0;" vertex="1" parent="1">
          <mxGeometry x="750" y="530" width="125" height="30" as="geometry" />
        </mxCell>
        <mxCell id="LtA9Es2iq_Jr2EM257ws-57" value="" style="endArrow=none;html=1;rounded=0;" edge="1" parent="1">
          <mxGeometry width="50" height="50" relative="1" as="geometry">
            <mxPoint x="960" y="450" as="sourcePoint" />
            <mxPoint x="960" y="363" as="targetPoint" />
          </mxGeometry>
        </mxCell>
        <mxCell id="LtA9Es2iq_Jr2EM257ws-59" style="edgeStyle=orthogonalEdgeStyle;rounded=0;orthogonalLoop=1;jettySize=auto;html=1;" edge="1" parent="1" source="LtA9Es2iq_Jr2EM257ws-58">
          <mxGeometry relative="1" as="geometry">
            <mxPoint x="960" y="520" as="targetPoint" />
          </mxGeometry>
        </mxCell>
        <mxCell id="LtA9Es2iq_Jr2EM257ws-58" value="Pull" style="text;html=1;strokeColor=none;fillColor=none;align=center;verticalAlign=middle;whiteSpace=wrap;rounded=0;" vertex="1" parent="1">
          <mxGeometry x="930" y="450" width="60" height="20" as="geometry" />
        </mxCell>
        <mxCell id="LtA9Es2iq_Jr2EM257ws-61" value="" style="endArrow=none;html=1;rounded=0;" edge="1" parent="1" target="LtA9Es2iq_Jr2EM257ws-45">
          <mxGeometry width="50" height="50" relative="1" as="geometry">
            <mxPoint x="660" y="370" as="sourcePoint" />
            <mxPoint x="710" y="320" as="targetPoint" />
          </mxGeometry>
        </mxCell>
        <mxCell id="LtA9Es2iq_Jr2EM257ws-63" value="Clean Up" style="text;html=1;strokeColor=none;fillColor=none;align=center;verticalAlign=middle;whiteSpace=wrap;rounded=0;" vertex="1" parent="1">
          <mxGeometry x="580.01" y="740" width="60" height="30" as="geometry" />
        </mxCell>
      </root>
    </mxGraphModel>
  </diagram>
</mxfile>
